<svg width="526" height="122" viewBox="0 0 526 122" fill="none" xmlns="http://www.w3.org/2000/svg">
<path d="M78.3475 111.07C78.0595 111.502 77.4115 112.51 76.6195 112.51C75.8275 112.51 75.3235 111.646 75.0355 111.142C53.2915 73.918 47.6035 63.046 47.6035 62.974C47.2435 62.326 46.5955 61.246 45.3715 60.598C44.4355 60.094 43.5715 60.094 43.0675 60.094C40.8355 60.166 35.2915 60.166 27.8755 60.166C27.3715 60.238 26.7955 60.526 26.5075 61.03C26.0035 61.966 26.8675 63.406 27.0835 63.766C28.3795 65.926 53.0035 109.054 54.1555 111.214C54.4435 111.79 55.3075 113.374 57.1075 114.238C57.9715 114.67 59.0515 114.886 60.2035 114.814C62.8675 114.67 65.6035 114.814 68.3395 114.742C72.5875 114.67 76.7635 114.67 81.0115 114.67C85.8355 114.67 90.5875 114.67 95.4115 114.67C95.6995 114.67 96.4195 114.67 97.2115 114.238C98.0035 113.878 98.4355 113.23 98.7235 112.798C114.852 85.15 126.588 64.846 127.596 62.902C127.956 62.254 128.244 61.462 127.884 60.886C127.668 60.526 127.092 60.238 126.3 60.238C121.116 60.166 115.932 60.094 110.748 60.166C110.388 60.166 109.596 60.166 108.732 60.67C107.796 61.174 107.292 61.966 106.932 62.542C91.1635 89.47 79.6435 108.982 78.3475 111.07Z" fill="#2703B8"/>
<path d="M12.2512 53.5419C12.0352 53.1099 11.4592 52.0299 11.8912 51.3099C12.2512 50.6619 13.3312 50.5899 13.9072 50.5899C57.0352 50.4459 69.3472 50.9499 69.3472 50.9499C70.0672 50.9499 71.3632 50.9499 72.5152 50.2299C73.3792 49.6539 73.8112 48.8619 74.0992 48.4299C75.1792 46.4859 77.9152 41.7339 81.6592 35.2539C81.8032 34.8219 81.9472 34.1019 81.5872 33.5979C81.0112 32.6619 79.3552 32.7339 78.9232 32.7339C76.4032 32.7339 26.7232 32.4459 24.2752 32.3739C23.6272 32.3739 21.8272 32.3019 20.1712 33.4539C19.3792 34.0299 18.6592 34.8219 18.0832 35.9019C16.8592 38.2779 15.3472 40.5819 14.0512 42.9579C12.0352 46.6299 9.87519 50.3019 7.78719 53.9739C5.33919 58.0779 2.96319 62.3259 0.587189 66.4299C0.44319 66.7179 0.0831901 67.3659 0.0111901 68.2299C-0.0608099 69.0939 0.227189 69.8139 0.515189 70.3179C16.3552 98.1099 28.0192 118.486 29.1712 120.286C29.5312 120.862 30.1072 121.582 30.7552 121.582C31.1872 121.582 31.6912 121.222 32.1232 120.502C34.7872 116.038 37.4512 111.574 39.9712 107.11C40.1152 106.822 40.5472 106.102 40.5472 105.094C40.5472 104.014 40.1872 103.15 39.8272 102.574C24.4912 75.5019 13.4032 55.7019 12.2512 53.5419Z" fill="#2703B8"/>
<path d="M198.731 65.4939H201.539V64.3419C201.539 53.1819 194.555 49.3659 185.267 49.3659C173.099 49.3659 162.011 57.5019 162.011 57.5019L154.019 42.3819C154.019 42.3819 167.123 31.9419 187.283 31.9419C209.531 31.9419 222.563 44.2539 222.563 65.7099V118.774H203.123V111.79C203.123 108.478 203.483 105.814 203.483 105.814H203.123C203.267 105.814 196.643 120.79 177.347 120.79C162.227 120.79 148.547 111.286 148.547 94.3659C148.547 67.2939 184.979 65.4939 198.731 65.4939ZM182.603 104.23C193.763 104.23 201.755 92.2779 201.755 81.9819V79.9659H198.083C187.283 79.9659 169.787 81.4779 169.787 93.2859C169.787 98.9019 173.963 104.23 182.603 104.23Z" fill="#2703B8"/>
<path d="M241.643 0.621826H262.739V37.0538C262.739 41.2298 262.379 44.1818 262.379 44.1818H262.739C262.739 44.1818 270.227 31.8698 288.155 31.8698C311.123 31.8698 325.739 50.0138 325.739 76.2938C325.739 103.222 309.251 120.718 286.859 120.718C269.219 120.718 261.587 108.046 261.587 108.046H261.227C261.227 108.046 261.587 110.566 261.587 113.878V118.702H241.643V0.621826ZM283.187 102.934C294.851 102.934 304.499 93.4298 304.499 76.6538C304.499 60.5258 295.859 50.0858 283.403 50.0858C272.459 50.0858 262.091 58.0778 262.091 76.8698C262.091 89.9018 269.075 102.934 283.187 102.934Z" fill="#2703B8"/>
<path d="M339.203 0.621826H360.155V89.1098C360.155 98.3978 363.323 100.774 368.795 100.774C370.451 100.774 371.963 100.63 371.963 100.63V119.062C371.963 119.062 368.795 119.566 365.339 119.566C353.675 119.566 339.203 116.542 339.203 92.2778V0.621826Z" fill="#2703B8"/>
<path d="M421.859 31.8699C446.267 31.8699 459.443 49.6539 459.443 72.1179C459.443 74.6379 458.939 80.2539 458.939 80.2539H400.403C401.699 95.0859 413.219 102.718 425.819 102.718C439.427 102.718 450.227 93.4299 450.227 93.4299L458.363 108.55C458.363 108.55 445.403 120.718 424.307 120.718C396.227 120.718 378.731 100.414 378.731 76.2939C378.803 50.2299 396.587 31.8699 421.859 31.8699ZM438.131 65.8539C437.771 54.4059 430.643 48.2139 421.355 48.2139C410.555 48.2139 403.067 54.8379 401.051 65.8539H438.131Z" fill="#2703B8"/>
<path d="M474.059 33.8859H494.363V48.5019C494.363 51.6699 494.003 54.4779 494.003 54.4779H494.363C498.179 42.3099 508.331 32.6619 521.291 32.6619C523.307 32.6619 525.107 33.0219 525.107 33.0219V53.8299C525.107 53.8299 522.947 53.4699 520.139 53.4699C511.139 53.4699 500.987 58.6539 497.027 71.2539C495.731 75.4299 495.227 80.0379 495.227 85.0779V118.63H474.131V33.8859H474.059Z" fill="#2703B8"/>
<path d="M95.051 24.526C95.555 24.526 96.779 24.598 97.139 25.318C97.499 25.966 97.067 26.902 96.779 27.406C75.611 64.99 69.059 75.43 69.059 75.43C68.699 76.006 68.051 77.158 68.123 78.526C68.195 79.534 68.627 80.326 68.915 80.758C70.067 82.63 72.875 87.454 76.691 93.862C77.051 94.222 77.555 94.654 78.131 94.654C79.211 94.654 80.003 93.142 80.219 92.782C81.443 90.55 106.283 47.566 107.507 45.406C107.867 44.83 108.803 43.318 108.587 41.302C108.515 40.294 108.155 39.358 107.507 38.35C105.995 36.118 104.771 33.67 103.403 31.366C101.171 27.766 99.083 24.094 96.923 20.494C94.547 16.318 92.027 12.214 89.651 8.03799C89.507 7.74999 89.147 7.174 88.355 6.67C87.635 6.238 86.843 6.09399 86.339 6.09399C54.299 6.16599 30.827 6.238 28.739 6.31C28.019 6.31 27.155 6.454 26.867 7.03C26.651 7.462 26.723 8.03799 27.155 8.68599C29.675 13.222 32.267 17.686 34.931 22.15C35.075 22.438 35.579 23.158 36.371 23.662C37.307 24.238 38.243 24.238 38.891 24.238C69.923 24.31 92.531 24.454 95.051 24.526Z" fill="#2703B8"/>
</svg>
