<svg width="526" height="122" viewBox="0 0 526 122" fill="none" xmlns="http://www.w3.org/2000/svg">
<rect width="526" height="122" fill="#E6E6E6"/>
<rect width="2334" height="2535" transform="translate(-253 -964)" fill="white"/>
<rect x="-59" y="-42.3782" width="647" height="209" fill="#2703B8"/>
<rect x="-19.5" y="-410.878" width="564.107" height="587" rx="4.5" stroke="#9747FF" stroke-dasharray="10 5"/>
<path d="M78.3475 110.99C78.0595 111.422 77.4115 112.43 76.6195 112.43C75.8275 112.43 75.3235 111.566 75.0355 111.062C53.2915 73.8379 47.6035 62.9659 47.6035 62.8939C47.2435 62.2459 46.5955 61.1659 45.3715 60.5179C44.4355 60.0139 43.5715 60.0139 43.0675 60.0139C40.8355 60.0859 35.2915 60.0859 27.8755 60.0859C27.3715 60.1579 26.7955 60.4459 26.5075 60.9499C26.0035 61.8859 26.8675 63.3259 27.0835 63.6859C28.3795 65.8459 53.0035 108.974 54.1555 111.134C54.4435 111.71 55.3075 113.294 57.1075 114.158C57.9715 114.59 59.0515 114.806 60.2035 114.734C62.8675 114.59 65.6035 114.734 68.3395 114.662C72.5875 114.59 76.7635 114.59 81.0115 114.59C85.8355 114.59 90.5875 114.59 95.4115 114.59C95.6995 114.59 96.4195 114.59 97.2115 114.158C98.0035 113.798 98.4355 113.15 98.7235 112.718C114.852 85.0699 126.588 64.7659 127.596 62.8219C127.956 62.1739 128.244 61.3819 127.884 60.8059C127.668 60.4459 127.092 60.1579 126.3 60.1579C121.116 60.0859 115.932 60.0139 110.748 60.0859C110.388 60.0859 109.596 60.0859 108.732 60.5899C107.796 61.0939 107.292 61.8859 106.932 62.4619C91.1635 89.3899 79.6435 108.902 78.3475 110.99Z" fill="white"/>
<path d="M12.2512 53.4619C12.0352 53.0299 11.4592 51.9499 11.8912 51.2299C12.2512 50.5819 13.3312 50.5099 13.9072 50.5099C57.0352 50.3659 69.3472 50.8699 69.3472 50.8699C70.0672 50.8699 71.3632 50.8699 72.5152 50.1499C73.3792 49.5739 73.8112 48.7819 74.0992 48.3499C75.1792 46.4059 77.9152 41.6539 81.6592 35.1739C81.8032 34.7419 81.9472 34.0219 81.5872 33.5179C81.0112 32.5819 79.3552 32.6539 78.9232 32.6539C76.4032 32.6539 26.7232 32.3659 24.2752 32.2939C23.6272 32.2939 21.8272 32.2219 20.1712 33.3739C19.3792 33.9499 18.6592 34.7419 18.0832 35.8219C16.8592 38.1979 15.3472 40.5019 14.0512 42.8779C12.0352 46.5499 9.87519 50.2219 7.78719 53.8939C5.33919 57.9979 2.96319 62.2459 0.587189 66.3499C0.44319 66.6379 0.0831901 67.2859 0.0111901 68.1499C-0.0608099 69.0139 0.227189 69.7339 0.515189 70.2379C16.3552 98.0299 28.0192 118.406 29.1712 120.206C29.5312 120.782 30.1072 121.502 30.7552 121.502C31.1872 121.502 31.6912 121.142 32.1232 120.422C34.7872 115.958 37.4512 111.494 39.9712 107.03C40.1152 106.742 40.5472 106.022 40.5472 105.014C40.5472 103.934 40.1872 103.07 39.8272 102.494C24.4912 75.4219 13.4032 55.6219 12.2512 53.4619Z" fill="white"/>
<path d="M198.731 65.4138H201.539V64.2618C201.539 53.1018 194.555 49.2858 185.267 49.2858C173.099 49.2858 162.011 57.4218 162.011 57.4218L154.019 42.3018C154.019 42.3018 167.123 31.8618 187.283 31.8618C209.531 31.8618 222.563 44.1738 222.563 65.6298V118.694H203.123V111.71C203.123 108.398 203.483 105.734 203.483 105.734H203.123C203.267 105.734 196.643 120.71 177.347 120.71C162.227 120.71 148.547 111.206 148.547 94.2858C148.547 67.2138 184.979 65.4138 198.731 65.4138ZM182.603 104.15C193.763 104.15 201.755 92.1978 201.755 81.9018V79.8858H198.083C187.283 79.8858 169.787 81.3978 169.787 93.2058C169.787 98.8218 173.963 104.15 182.603 104.15Z" fill="white"/>
<path d="M241.643 0.541748H262.739V36.9737C262.739 41.1497 262.379 44.1017 262.379 44.1017H262.739C262.739 44.1017 270.227 31.7898 288.155 31.7898C311.123 31.7898 325.739 49.9338 325.739 76.2138C325.739 103.142 309.251 120.638 286.859 120.638C269.219 120.638 261.587 107.966 261.587 107.966H261.227C261.227 107.966 261.587 110.486 261.587 113.798V118.622H241.643V0.541748ZM283.187 102.854C294.851 102.854 304.499 93.3497 304.499 76.5738C304.499 60.4458 295.859 50.0058 283.403 50.0058C272.459 50.0058 262.091 57.9977 262.091 76.7897C262.091 89.8218 269.075 102.854 283.187 102.854Z" fill="white"/>
<path d="M339.203 0.541748H360.155V89.0297C360.155 98.3177 363.323 100.694 368.795 100.694C370.451 100.694 371.963 100.55 371.963 100.55V118.982C371.963 118.982 368.795 119.486 365.339 119.486C353.675 119.486 339.203 116.462 339.203 92.1977V0.541748Z" fill="white"/>
<path d="M421.859 31.7898C446.267 31.7898 459.443 49.5738 459.443 72.0378C459.443 74.5578 458.939 80.1738 458.939 80.1738H400.403C401.699 95.0058 413.219 102.638 425.819 102.638C439.427 102.638 450.227 93.3498 450.227 93.3498L458.363 108.47C458.363 108.47 445.403 120.638 424.307 120.638C396.227 120.638 378.731 100.334 378.731 76.2138C378.803 50.1498 396.587 31.7898 421.859 31.7898ZM438.131 65.7738C437.771 54.3258 430.643 48.1338 421.355 48.1338C410.555 48.1338 403.067 54.7578 401.051 65.7738H438.131Z" fill="white"/>
<path d="M474.059 33.8058H494.363V48.4218C494.363 51.5898 494.003 54.3978 494.003 54.3978H494.363C498.179 42.2298 508.331 32.5818 521.291 32.5818C523.307 32.5818 525.107 32.9418 525.107 32.9418V53.7498C525.107 53.7498 522.947 53.3898 520.139 53.3898C511.139 53.3898 500.987 58.5738 497.027 71.1738C495.731 75.3498 495.227 79.9578 495.227 84.9978V118.55H474.131V33.8058H474.059Z" fill="white"/>
<path d="M95.051 24.4459C95.555 24.4459 96.779 24.5179 97.139 25.2379C97.499 25.8859 97.067 26.8219 96.779 27.3259C75.611 64.9099 69.059 75.3499 69.059 75.3499C68.699 75.9259 68.051 77.0779 68.123 78.4459C68.195 79.4539 68.627 80.2459 68.915 80.6779C70.067 82.5499 72.875 87.3739 76.691 93.7819C77.051 94.1419 77.555 94.5739 78.131 94.5739C79.211 94.5739 80.003 93.0619 80.219 92.7019C81.443 90.4699 106.283 47.4859 107.507 45.3259C107.867 44.7499 108.803 43.2379 108.587 41.2219C108.515 40.2139 108.155 39.2779 107.507 38.2699C105.995 36.0379 104.771 33.5899 103.403 31.2859C101.171 27.6859 99.083 24.0139 96.923 20.4139C94.547 16.2379 92.027 12.1339 89.651 7.95791C89.507 7.66991 89.147 7.09392 88.355 6.58992C87.635 6.15792 86.843 6.01392 86.339 6.01392C54.299 6.08592 30.827 6.15792 28.739 6.22992C28.019 6.22992 27.155 6.37392 26.867 6.94992C26.651 7.38192 26.723 7.95791 27.155 8.60591C29.675 13.1419 32.267 17.6059 34.931 22.0699C35.075 22.3579 35.579 23.0779 36.371 23.5819C37.307 24.1579 38.243 24.1579 38.891 24.1579C69.923 24.2299 92.531 24.3739 95.051 24.4459Z" fill="white"/>
</svg>
