<svg width="526" height="121" viewBox="0 0 526 121" fill="none" xmlns="http://www.w3.org/2000/svg">
<path d="M78.3473 110.448C78.0593 110.88 77.4113 111.888 76.6193 111.888C75.8273 111.888 75.3233 111.024 75.0353 110.52C53.2913 73.2962 47.6033 62.4242 47.6033 62.3522C47.2433 61.7042 46.5953 60.6242 45.3713 59.9762C44.4353 59.4722 43.5713 59.4722 43.0673 59.4722C40.8353 59.5442 35.2913 59.5442 27.8753 59.5442C27.3713 59.6162 26.7953 59.9042 26.5073 60.4082C26.0033 61.3442 26.8673 62.7842 27.0833 63.1442C28.3793 65.3042 53.0033 108.432 54.1553 110.592C54.4433 111.168 55.3073 112.752 57.1073 113.616C57.9713 114.048 59.0513 114.264 60.2033 114.192C62.8673 114.048 65.6033 114.192 68.3393 114.12C72.5873 114.048 76.7633 114.048 81.0113 114.048C85.8353 114.048 90.5873 114.048 95.4113 114.048C95.6993 114.048 96.4193 114.048 97.2113 113.616C98.0033 113.256 98.4353 112.608 98.7233 112.176C114.851 84.5282 126.587 64.2242 127.595 62.2802C127.955 61.6322 128.243 60.8402 127.883 60.2642C127.667 59.9042 127.091 59.6162 126.299 59.6162C121.115 59.5442 115.931 59.4722 110.747 59.5442C110.387 59.5442 109.595 59.5442 108.731 60.0482C107.795 60.5522 107.291 61.3442 106.931 61.9202C91.1633 88.8482 79.6433 108.36 78.3473 110.448Z" fill="#2703B8"/>
<path d="M12.2514 52.9201C12.0354 52.4881 11.4594 51.4081 11.8914 50.6881C12.2514 50.0401 13.3314 49.9681 13.9074 49.9681C57.0354 49.8241 69.3474 50.3281 69.3474 50.3281C70.0674 50.3281 71.3634 50.3281 72.5154 49.6081C73.3794 49.0321 73.8114 48.2401 74.0994 47.8081C75.1794 45.8641 77.9154 41.1121 81.6594 34.6321C81.8034 34.2001 81.9474 33.4801 81.5874 32.9761C81.0114 32.0401 79.3554 32.1121 78.9234 32.1121C76.4034 32.1121 26.7234 31.8241 24.2754 31.7521C23.6274 31.7521 21.8274 31.6801 20.1714 32.8321C19.3794 33.4081 18.6594 34.2001 18.0834 35.2801C16.8594 37.6561 15.3474 39.9601 14.0514 42.3361C12.0354 46.0081 9.87543 49.6801 7.78743 53.3521C5.33943 57.4561 2.96343 61.7041 0.587434 65.8081C0.443434 66.0961 0.0834342 66.7441 0.0114342 67.6081C-0.0605658 68.4721 0.227433 69.1921 0.515433 69.6961C16.3554 97.4881 28.0194 117.864 29.1714 119.664C29.5314 120.24 30.1074 120.96 30.7554 120.96C31.1874 120.96 31.6914 120.6 32.1234 119.88C34.7874 115.416 37.4514 110.952 39.9714 106.488C40.1154 106.2 40.5474 105.48 40.5474 104.472C40.5474 103.392 40.1874 102.528 39.8274 101.952C24.4914 74.8801 13.4034 55.0801 12.2514 52.9201Z" fill="#2703B8"/>
<path d="M198.731 64.8721H201.539V63.7201C201.539 52.5601 194.555 48.7441 185.267 48.7441C173.099 48.7441 162.011 56.8801 162.011 56.8801L154.019 41.7601C154.019 41.7601 167.123 31.3201 187.283 31.3201C209.531 31.3201 222.563 43.6321 222.563 65.0881V118.152H203.123V111.168C203.123 107.856 203.483 105.192 203.483 105.192H203.123C203.267 105.192 196.643 120.168 177.347 120.168C162.227 120.168 148.547 110.664 148.547 93.7441C148.547 66.6721 184.979 64.8721 198.731 64.8721ZM182.603 103.608C193.763 103.608 201.755 91.6561 201.755 81.3601V79.3441H198.083C187.283 79.3441 169.787 80.8561 169.787 92.6641C169.787 98.2801 173.963 103.608 182.603 103.608Z" fill="#2703B8"/>
<path d="M241.643 0H262.739V36.432C262.739 40.608 262.379 43.56 262.379 43.56H262.739C262.739 43.56 270.227 31.248 288.155 31.248C311.123 31.248 325.739 49.392 325.739 75.672C325.739 102.6 309.251 120.096 286.859 120.096C269.219 120.096 261.587 107.424 261.587 107.424H261.227C261.227 107.424 261.587 109.944 261.587 113.256V118.08H241.643V0ZM283.187 102.312C294.851 102.312 304.499 92.808 304.499 76.032C304.499 59.904 295.859 49.464 283.403 49.464C272.459 49.464 262.091 57.456 262.091 76.248C262.091 89.28 269.075 102.312 283.187 102.312Z" fill="#2703B8"/>
<path d="M339.203 0H360.155V88.488C360.155 97.776 363.323 100.152 368.795 100.152C370.451 100.152 371.963 100.008 371.963 100.008V118.44C371.963 118.44 368.795 118.944 365.339 118.944C353.675 118.944 339.203 115.92 339.203 91.656V0Z" fill="#2703B8"/>
<path d="M421.859 31.248C446.267 31.248 459.443 49.032 459.443 71.496C459.443 74.016 458.939 79.632 458.939 79.632H400.403C401.699 94.464 413.219 102.096 425.819 102.096C439.427 102.096 450.227 92.808 450.227 92.808L458.363 107.928C458.363 107.928 445.403 120.096 424.307 120.096C396.227 120.096 378.731 99.792 378.731 75.672C378.803 49.608 396.587 31.248 421.859 31.248ZM438.131 65.232C437.771 53.784 430.643 47.592 421.355 47.592C410.555 47.592 403.067 54.216 401.051 65.232H438.131Z" fill="#2703B8"/>
<path d="M474.059 33.264H494.363V47.88C494.363 51.048 494.003 53.856 494.003 53.856H494.363C498.179 41.688 508.331 32.04 521.291 32.04C523.307 32.04 525.107 32.4 525.107 32.4V53.208C525.107 53.208 522.947 52.848 520.139 52.848C511.139 52.848 500.987 58.032 497.027 70.632C495.731 74.808 495.227 79.416 495.227 84.456V118.008H474.131V33.264H474.059Z" fill="#2703B8"/>
<path d="M95.0512 23.9042C95.5552 23.9042 96.7792 23.9762 97.1392 24.6962C97.4992 25.3442 97.0672 26.2802 96.7792 26.7842C75.6112 64.3682 69.0592 74.8082 69.0592 74.8082C68.6992 75.3842 68.0512 76.5362 68.1232 77.9042C68.1952 78.9122 68.6272 79.7042 68.9152 80.1362C70.0672 82.0082 72.8752 86.8322 76.6912 93.2402C77.0512 93.6002 77.5552 94.0322 78.1312 94.0322C79.2112 94.0322 80.0032 92.5202 80.2192 92.1602C81.4432 89.9282 106.283 46.9442 107.507 44.7842C107.867 44.2082 108.803 42.6962 108.587 40.6802C108.515 39.6722 108.155 38.7362 107.507 37.7282C105.995 35.4962 104.771 33.0482 103.403 30.7442C101.171 27.1442 99.0832 23.4722 96.9232 19.8722C94.5472 15.6962 92.0272 11.5922 89.6512 7.41617C89.5072 7.12817 89.1472 6.55217 88.3552 6.04817C87.6352 5.61617 86.8432 5.47217 86.3392 5.47217C54.2992 5.54417 30.8272 5.61617 28.7392 5.68817C28.0192 5.68817 27.1552 5.83217 26.8672 6.40817C26.6512 6.84017 26.7232 7.41617 27.1552 8.06417C29.6752 12.6002 32.2672 17.0642 34.9312 21.5282C35.0752 21.8162 35.5792 22.5362 36.3712 23.0402C37.3072 23.6162 38.2432 23.6162 38.8912 23.6162C69.9232 23.6882 92.5312 23.8322 95.0512 23.9042Z" fill="#2703B8"/>
</svg>
